<svg width="17" height="12" viewBox="0 0 17 12" fill="none" xmlns="http://www.w3.org/2000/svg">
<path d="M16.6093 1.77562C16.6865 1.99045 16.7269 2.21675 16.7288 2.445V9.38591C16.7267 9.9446 16.5033 10.4797 16.1075 10.874C15.7117 11.2683 15.1758 11.4897 14.6171 11.4897H2.91874C2.36143 11.4876 1.82753 11.2653 1.43345 10.8712C1.03937 10.4771 0.817041 9.94322 0.814941 9.38591V2.445C0.816906 2.21675 0.857336 1.99045 0.934494 1.77562L6.89521 5.91946C7.45037 6.30294 8.10911 6.50832 8.78384 6.50832C9.45857 6.50832 10.1173 6.30294 10.6725 5.91946L16.6093 1.77562ZM7.77978 4.61255C8.0665 4.81133 8.40708 4.91785 8.75597 4.91785C9.10486 4.91785 9.44542 4.81133 9.73214 4.61255L15.5495 0.564332C15.2615 0.414186 14.9418 0.334975 14.6171 0.333252H2.91874C2.59414 0.336183 2.27476 0.415326 1.98637 0.564332L7.77978 4.61255Z" fill="#09A5F0"/>
</svg>
