<svg xmlns="http://www.w3.org/2000/svg" width="15" height="12" fill="none" viewBox="0 0 15 12"><path fill="#09A5F0" fill-rule="evenodd" d="M1.377 5.211A759.058 759.058 0 0 1 8.72 2.05C12.22.594 12.941.343 13.417.333a.835.835 0 0 1 .49.15c.098.088.162.209.177.34.026.163.034.33.023.494-.19 1.992-1.012 6.823-1.427 9.052-.177.932-.527 1.259-.862 1.291-.732.07-1.287-.466-1.996-.932C8.717 10 8.087 9.548 7.024 8.862c-1.245-.816-.439-1.268.27-2.005.187-.191 3.41-3.12 3.47-3.385a.25.25 0 0 0-.06-.224c-.07-.065-.183-.042-.262-.028-.08.014-1.865 1.198-5.307 3.511-.392.306-.87.482-1.366.504a8.86 8.86 0 0 1-1.959-.466C1.022 6.512.411 6.377.45 5.943c.021-.248.33-.493.928-.732Z" clip-rule="evenodd"/></svg>