<svg xmlns="http://www.w3.org/2000/svg" fill="none" viewBox="0 0 69 63"><path fill="#0A051E" d="M63.455 39.087c2.81-12.953-5.413-25.732-18.366-28.542-12.954-2.81-25.733 5.413-28.543 18.366-2.81 12.954 5.413 25.733 18.366 28.543 12.954 2.81 25.733-5.413 28.543-18.367Z" opacity=".1"/><path fill="#fff" d="M25 45c11.047 0 20-8.954 20-20S36.048 5 25 5C13.956 5 5 13.954 5 25s8.955 20 20 20Z"/><path fill="#09A5F0" d="M25 1a24 24 0 1 0 0 48 24 24 0 0 0 0-48Zm0 43a19 19 0 1 1 0-38 19 19 0 0 1 0 38Z"/><path stroke="#0A051E" stroke-linecap="round" stroke-miterlimit="10" stroke-width="2" d="M34.096 47.22A24 24 0 1 1 46.26 36.145m-4-3.145a19 19 0 1 0-8.2 8.69"/><path fill="#fff" stroke="#0A051E" stroke-linecap="round" stroke-linejoin="round" stroke-width="2" d="M53.41 46.215 38 34.98v19.045c0 .575.46.775.926.33l4.305-4.18 4.165 7.355a1.313 1.313 0 0 0 1.84.28l1.74-1.1a1.36 1.36 0 0 0 .585-1.765l-4-6.945h5.245c1.195-.02 1.39-1.27.605-1.785Z"/><path stroke="#B5B4BB" stroke-miterlimit="10" stroke-width="4" d="M55 0v4m0 4v4m-2-6h-4m12 0h-4"/><path stroke="#B5B4BB" stroke-miterlimit="10" stroke-width="2" d="M58 23v-2m0-2v-2m-1 3h-2m6 0h-2"/><path stroke="#0A051E" stroke-linecap="round" stroke-miterlimit="10" stroke-width="2" d="M16.25 25.955h12.276a5.23 5.23 0 0 0 0-10.455h-8.64M16.25 30.5h13.18"/><path fill="#fff" stroke="#0A051E" stroke-linecap="round" stroke-linejoin="round" stroke-width="2" d="M23.066 15.5h-3.18v20h3.18v-20Z"/></svg>
