<svg xmlns="http://www.w3.org/2000/svg" fill="none" viewBox="0 0 61 62"><path fill="#0A051E" d="M23.22 40c11.046 0 20-8.954 20-20s-8.954-20-20-20-20 8.954-20 20 8.954 20 20 20Z" opacity=".1"/><path stroke="#0A051E" stroke-linecap="round" stroke-miterlimit="10" stroke-width="2" d="M48 16h10.41a1.28 1.28 0 0 1 1.225 1.655l-6.27 20.535a2.565 2.565 0 0 1-2.455 1.815h-30M14.2 16H26"/><path stroke="#0A051E" stroke-linecap="round" stroke-miterlimit="10" stroke-width="2" d="M50 49H26a3.215 3.215 0 0 1-3.185-2.17L12.54 10.05A2.885 2.885 0 0 0 10 8H1"/><path fill="#09A5F0" stroke="#0A051E" stroke-linejoin="round" stroke-width="2" d="M25 61a4 4 0 1 0 0-8 4 4 0 0 0 0 8ZM46 61a4 4 0 1 0 0-8 4 4 0 0 0 0 8Z"/><path stroke="#B5B4BB" stroke-miterlimit="10" stroke-width="2" d="M12 47v-2m0-2v-2m-1 3H9m6 0h-2"/><path stroke="#B5B4BB" stroke-miterlimit="10" stroke-width="4" d="m6 32-2 2m7-7-2 2m0 3 2 2m-7-7 2 2"/><path stroke="#0A051E" stroke-miterlimit="10" stroke-width="2" d="M33 15v8m-4-4h8M40 23v8m-4-4h8M43 7v8m-4-4h8M32 0v8m-4-4h8"/></svg>
