<svg xmlns="http://www.w3.org/2000/svg" fill="none" viewBox="0 0 64 56"><path fill="#0A051E" d="M44.511 41.231c7.03-7.03 7.03-18.426 0-25.456-7.03-7.03-18.426-7.03-25.456 0-7.03 7.03-7.03 18.427 0 25.456 7.03 7.03 18.427 7.03 25.456 0Z" opacity=".1"/><path stroke="#0A051E" stroke-miterlimit="10" stroke-width="2" d="M47.523 11.525a24.04 24.04 0 0 1-7.5 39.555m12.5-9.72c3.765.57 8.14-.31 9.265-7.685-4.66-.715-8.42 2.125-9.265 7.685Zm-7.58 7.61c3.045 2.295 7.315 3.59 11.805-2.375-3.75-2.835-8.42-2.115-11.805 2.375Zm10.5-18.655c3.79-.395 7.8-2.36 7-9.78-4.685.49-7.605 4.185-7.02 9.78h.02Zm-1.735-9.87c3.25-2 6-5.5 2.125-11.855-4.04 2.46-5.08 7.055-2.145 11.855h.02ZM48.378 12c.945-3.695.5-8.135-6.745-10-1.185 4.58 1.275 8.6 6.725 10h.02ZM16.023 11.525a24.04 24.04 0 0 0 7.5 39.555m-12.5-9.72c-3.765.57-8.14-.31-9.265-7.685 4.66-.715 8.42 2.125 9.265 7.685Zm7.58 7.61c-3.045 2.295-7.315 3.59-11.805-2.375 3.75-2.835 8.42-2.115 11.805 2.375Zm-10.5-18.655c-3.79-.395-7.8-2.36-7-9.78 4.685.49 7.605 4.185 7.02 9.78h-.02Zm1.735-9.87c-3.25-2-6-5.5-2.125-11.855 4.04 2.46 5.08 7.055 2.145 11.855h-.02ZM15.168 12c-.945-3.695-.5-8.135 6.745-10 1.185 4.58-1.275 8.6-6.725 10h-.02Z"/><path fill="#fff" stroke="#0A051E" stroke-miterlimit="10" stroke-width="2" d="M46.783 17.505h-30v23h30v-23Z"/><path fill="#09A5F0" d="M34.783 42.005v11.5l-3-3-3 3v-11.5"/><path stroke="#0A051E" stroke-miterlimit="10" stroke-width="2" d="M34.783 42.005v11.5l-3-3-3 3v-11.5"/><path fill="#09A5F0" stroke="#0A051E" stroke-miterlimit="10" stroke-width="2" d="M31.783 43.505a5 5 0 1 0 0-10 5 5 0 0 0 0 10Z"/><path stroke="#0A051E" stroke-miterlimit="10" stroke-width="2" d="M23.783 24.5h16m-13 4h10"/><path stroke="#B5B4BB" stroke-miterlimit="10" stroke-width="2" d="M34.783 5.5h-6m3-3v6"/></svg>
