<svg xmlns="http://www.w3.org/2000/svg" fill="none" viewBox="0 0 60 65"><path fill="#0A051E" d="M9 38.005a21 21 0 1 1 42 0 21 21 0 0 1-42 0Z" opacity=".1"/><path fill="#fff" d="M16 27.005 9.22 32.23A6.97 6.97 0 0 0 7 37.36v19.645h19v-3s4-2.42 4-7v-4"/><path stroke="#0A051E" stroke-miterlimit="10" stroke-width="2" d="M16 27.005 9.22 32.23A6.97 6.97 0 0 0 7 37.36v19.645h19v-3s4-2.42 4-7v-4"/><path fill="#09A5F0" d="M5 64.005v-7h24v7"/><path stroke="#0A051E" stroke-miterlimit="10" stroke-width="2" d="M5 64.005v-7h24v7M8 61.005h3"/><path fill="#fff" stroke="#0A051E" stroke-miterlimit="10" stroke-width="2" d="M25 15.005c2.415 0 2.66 1.615 2 3.025-.5 1-1 1.695-1 2.975a4 4 0 1 0 8 0c0-1.28-.5-2-1-2.975-.68-1.41-.44-3.025 2-3.025h8v9c0 2.42 1.61 2.66 3 2 1-.47 1.7-1 3-1a4 4 0 1 1 0 8c-1.28 0-2-.5-3-1-1.41-.68-3-.435-3 2v9H16v-28h9Z"/><path fill="#fff" d="M11.93 41.43s9.065-8.86 11.385-11.18c2.32-2.32 4.965 3.355 2.76 6.625-1 1.37-5 5.89-5 5.89 2.245 5-1.13 9.1-1.13 9.1"/><path stroke="#0A051E" stroke-linecap="round" stroke-miterlimit="10" stroke-width="2" d="M11.93 41.43s9.065-8.86 11.385-11.18c2.32-2.32 4.965 3.355 2.76 6.625-1 1.37-5 5.89-5 5.89 2.245 5-1.13 9.1-1.13 9.1"/><path stroke="#B5B4BB" stroke-linecap="round" stroke-linejoin="round" stroke-width="2" d="M4 30.005H1v-6c0-1.915 1.155-2.42 2.135-1.905.83.435 1.5.905 2.865.905 1.685 0 3-1.5 3-3.5s-1.315-3.5-3-3.5c-1.375 0-2.035.465-2.865.9-1 .5-2.135 0-2.135-1.905V9h7c1.915 0 2.415-1.155 1.9-2.135C9.465 6.035 9 5.365 9 4c0-1.685 1.5-3 3.5-3S16 2.315 16 4c0 1.375-.47 2.035-.905 2.865-.5 1 0 2.135 1.905 2.135h6M29 9.005v-8h6c1.915 0 2.42 1.155 1.905 2.135-.435.83-.905 1.5-.905 2.865 0 1.69 1.5 3 3.5 3s3.5-1.31 3.5-3c0-1.375-.465-2.035-.9-2.865-.5-1 0-2.135 1.905-2.135h6v7c0 1.915 1.155 2.415 2.135 1.905.83-.435 1.5-.905 2.865-.905 1.685 0 3 1.5 3 3.5s-1.315 3.5-3 3.5c-1.375 0-2.035-.465-2.865-.9-1-.5-2.135 0-2.135 1.9v4"/></svg>
