<svg xmlns="http://www.w3.org/2000/svg" fill="none"  viewBox="0 0 60 58"><path fill="#0A051E" d="M37 57c12.15 0 22-9.85 22-22s-9.85-22-22-22-22 9.85-22 22 9.85 22 22 22Z" opacity=".1"/><path fill="#fff" d="M24.5 41C34.717 41 43 32.717 43 22.5S34.717 4 24.5 4 6 12.283 6 22.5 14.283 41 24.5 41Z"/><path fill="#fff" d="m57 1-3.405 13.69L51 10.98l-8.285 8.285a18.435 18.435 0 0 0-2.11-5.885L47 6.98l-3.9-2.785L57 1ZM7.41 29.59 1 36v8l9.475-9.46a18.56 18.56 0 0 1-3.065-4.95Z"/><path fill="#09A5F0" d="M22 15 7.41 29.59c.75 1.8 1.78 3.47 3.05 4.95L22 23l9 8 11.715-11.715a18.432 18.432 0 0 0-2.11-5.885L31 23l-9-8Z"/><path stroke="#0A051E" stroke-linecap="round" stroke-linejoin="round" stroke-width="2" d="M24.5 41C34.717 41 43 32.717 43 22.5S34.717 4 24.5 4 6 12.283 6 22.5 14.283 41 24.5 41Z"/><path fill="#09A5F0" stroke="#0A051E" stroke-linecap="round" stroke-linejoin="round" stroke-width="2" d="m44.975 38.965 13.08 13.075a2.8 2.8 0 0 1-.04 3.96 2.8 2.8 0 0 1-3.96.04l-13.08-13.075a2.81 2.81 0 0 1 .04-3.965 2.799 2.799 0 0 1 3.96-.035Z"/><path stroke="#0A051E" stroke-linecap="round" stroke-linejoin="round" stroke-width="2" d="m37.66 35.505 3.42 3.42M45 17l6-6 2.595 3.705L57 1 43.1 4.215 47 7l-4 4M10 27l12-12 9 8 7-7M13 32l9-9 9 8 9-9M5 32l-4 4M1 44l7-7"/><path stroke="#B5B4BB" stroke-miterlimit="10" stroke-width="4" d="M54 24v4m0 4v4m-2-6h-4m12 0h-4"/><path stroke="#B5B4BB" stroke-miterlimit="10" stroke-width="2" d="M33 46v6m-3-3h6"/></svg>
