<svg xmlns="http://www.w3.org/2000/svg" fill="none" viewBox="0 0 62 64"><path fill="#0A051E" d="M0 22a22 22 0 1 1 44 0 22 22 0 0 1-44 0Z" opacity=".1"/><path fill="#fff" d="M14 20c-4.75 0-8 1.5-8 6v9a4.085 4.085 0 0 0 4 4h1v18h6V39h1a37.368 37.368 0 0 1 3.125 3.905c.556.716.863 1.594.875 2.5v6.6l6-1v-8.61a4 4 0 0 0-.875-2.5l-3.47-4.33A3 3 0 0 1 23 33.69V26l7-1c2.915-.565 5-3 5-5H14Z"/><path stroke="#0A051E" stroke-linejoin="round" stroke-width="2" d="M17 57V39h1a37.368 37.368 0 0 1 3.125 3.905c.556.716.863 1.594.875 2.5v6.6"/><path fill="#09A5F0" d="M46 8h9l-3 4 3 4H44v-4"/><path stroke="#0A051E" stroke-miterlimit="10" stroke-width="2" d="M46 8h9l-3 4 3 4H44v-4"/><path fill="#09A5F0" d="M33 4h13v8H33"/><path stroke="#0A051E" stroke-miterlimit="10" stroke-width="2" d="M33 4h13v8H33M33 0v20m0 3.66V46"/><path stroke="#0A051E" stroke-linecap="round" stroke-linejoin="round" stroke-width="2" d="m1 63 8-6h8l5-5 6-1 5-5 7.13 4.48M28 62l6-5h6l6-7 5 4h4l6 5"/><path fill="#fff" stroke="#0A051E" stroke-miterlimit="10" stroke-width="2" d="M16.5 17a4.557 4.557 0 0 0 4.5-4.715v-1.57a4.5 4.5 0 1 0-9 0v1.57A4.554 4.554 0 0 0 16.5 17Z"/><path stroke="#0A051E" stroke-miterlimit="10" stroke-width="2" d="M11 26v31"/><path stroke="#0A051E" stroke-linejoin="round" stroke-width="2" d="M28 51v-8.605a4 4 0 0 0-.875-2.5l-3.47-4.33A3 3 0 0 1 23 33.69V26l7-1c2.915-.565 5-3 5-5H14c-4.75 0-8 1.5-8 6v9a4.085 4.085 0 0 0 4 4h1"/><path stroke="#B5B4BB" stroke-miterlimit="10" stroke-width="4" d="m53 31-2 2m7-7-2 2m0 3 2 2m-7-7 2 2"/><path stroke="#B5B4BB" stroke-miterlimit="10" stroke-width="2" d="M47 37v6m-3-3h6"/></svg>
