<svg xmlns="http://www.w3.org/2000/svg" width="16" height="16" fill="none" viewBox="0 0 16 16"><path fill="#09A5F0" d="M4.872.496A5.597 5.597 0 0 0 3.039.85 3.848 3.848 0 0 0 .834 3.064 5.464 5.464 0 0 0 .487 4.9c-.036.806-.045 1.06-.04 3.114.006 2.054 0 2.308.051 3.114.015.627.135 1.246.356 1.833a3.868 3.868 0 0 0 2.213 2.205 5.599 5.599 0 0 0 1.833.347c.806.036 1.063.045 3.114.039 2.052-.006 2.312 0 3.118-.05a5.598 5.598 0 0 0 1.833-.356 3.869 3.869 0 0 0 2.205-2.213 5.595 5.595 0 0 0 .347-1.833c.033-.808.042-1.066.039-3.117-.003-2.05-.014-2.308-.05-3.114a5.595 5.595 0 0 0-.356-1.833A3.868 3.868 0 0 0 12.937.831 5.538 5.538 0 0 0 11.1.484C10.295.448 10.038.44 7.986.445c-2.05.006-2.308 0-3.114.05Zm.09 13.657a4.126 4.126 0 0 1-1.4-.258 2.487 2.487 0 0 1-1.435-1.43 4.152 4.152 0 0 1-.263-1.398c-.04-.798-.048-1.036-.05-3.053-.003-2.017 0-2.258.039-3.053.004-.477.091-.95.257-1.399a2.487 2.487 0 0 1 1.43-1.435 4.226 4.226 0 0 1 1.4-.263c.797-.037 1.034-.045 3.052-.05 2.018-.006 2.255 0 3.053.039a4.12 4.12 0 0 1 1.4.257 2.501 2.501 0 0 1 1.437 1.43c.167.448.255.921.263 1.399.037.797.045 1.035.05 3.053.006 2.017 0 2.255-.038 3.052-.007.478-.094.95-.258 1.4a2.481 2.481 0 0 1-1.432 1.435 4.225 4.225 0 0 1-1.4.263c-.794.036-1.035.045-3.053.05-2.017.006-2.255 0-3.05-.039M11.12 3.96a.906.906 0 1 0 .557-.839.9.9 0 0 0-.556.839ZM4.125 8.006a3.881 3.881 0 1 0 7.762-.012 3.881 3.881 0 0 0-7.762.012Zm1.36 0a2.518 2.518 0 1 1 5.036 0 2.518 2.518 0 0 1-5.036 0Z"/></svg>