<svg width="110" height="30" viewBox="0 0 110 30" fill="none" xmlns="http://www.w3.org/2000/svg">
<path opacity="0.5" fill-rule="evenodd" clip-rule="evenodd" d="M24.3921 1.73791C23.0966 0.641192 21.2294 0.00310312 18.9558 0.00310312C17.4374 -0.0366499 15.9333 0.306086 14.5803 1.00012C15.2569 1.69722 15.7844 2.52626 16.1302 3.43615H16.1468C16.692 2.91771 17.8189 2.55878 18.9558 2.55878C20.0926 2.55878 21.2195 2.91771 21.7648 3.43615C22.1401 3.79127 22.4377 4.22115 22.6385 4.69838C22.8394 5.17561 22.9391 5.6897 22.9314 6.20785C22.945 7.18791 22.591 8.13717 21.94 8.86655C21.7478 9.05949 21.5243 9.21797 21.279 9.33515C20.7238 8.76021 20.1984 8.17861 19.6927 7.58041L18.1065 8.83664L18.1704 8.92128C18.4024 9.22841 18.6452 9.5499 18.8963 9.86024C17.6669 9.86024 16.5004 9.43485 15.9881 8.86323C15.3324 8.1353 14.9716 7.18674 14.9769 6.20453C14.9908 5.35452 14.8137 4.51231 14.459 3.74067C14.1042 2.96903 13.5809 2.28784 12.9279 1.74788C11.6325 0.641192 9.7653 0.00310312 7.49164 0.00310312C5.21798 0.00310312 3.3508 0.641192 2.05204 1.73791C1.39591 2.2773 0.870458 2.95978 0.515468 3.73365C0.160478 4.50752 -0.0147359 5.35248 0.00309862 6.20453C-0.0258623 7.07723 0.148518 7.94466 0.512312 8.73752C0.876105 9.53037 1.41923 10.2267 2.0983 10.7709C3.4202 11.8476 5.33034 12.406 7.49164 12.406C8.99885 12.4391 10.4921 12.1098 11.8473 11.4455C11.1662 10.7501 10.6391 9.91763 10.3007 9.00281C9.71903 9.50132 8.63177 9.8536 7.49164 9.8536C6.23914 9.8536 5.04613 9.43485 4.51737 8.85658C3.86029 8.12972 3.50031 7.18017 3.50943 6.19788C3.50211 5.67948 3.60236 5.16524 3.8038 4.688C4.00523 4.21076 4.30341 3.78101 4.67931 3.42618C5.22459 2.90774 6.3482 2.54881 7.48833 2.54881C8.62847 2.54881 9.74878 2.90774 10.2974 3.42618C10.6684 3.78249 10.9633 4.2112 11.1638 4.68607C11.3644 5.16094 11.4665 5.67198 11.4639 6.18791C11.4331 7.06261 11.6059 7.93245 11.9686 8.72811C12.3312 9.52378 12.8736 10.2233 13.5525 10.7709C14.8744 11.8476 16.7846 12.406 18.9459 12.406C19.5654 12.406 20.1643 12.3601 20.7347 12.2693C22.5765 13.5892 24.6138 14.6088 26.7715 15.2905C29.6025 16.1319 32.5443 16.5354 35.496 16.4869C37.8661 16.4968 40.2332 16.3168 42.5748 15.9485C44.2764 15.6714 45.9538 15.2603 47.5914 14.7189L47.0229 12.7847C45.4328 13.1959 43.8162 13.4957 42.1848 13.682C40.4793 13.8676 38.7646 13.9541 37.0492 13.9412C33.2422 13.9412 30.3274 13.7219 27.2738 12.8445C25.9786 12.4954 24.7354 11.9753 23.5766 11.2979C23.8483 11.1389 24.1031 10.9632 24.3392 10.7709C25.0191 10.227 25.5632 9.53094 25.9281 8.73813C26.293 7.94532 26.4687 7.07771 26.441 6.20453C26.4589 5.35248 26.2836 4.50752 25.9286 3.73365C25.5737 2.95978 25.0482 2.2773 24.3921 1.73791ZM53.8705 12.1533L48.5829 0.189125H45.0138L39.7262 12.1533H43.2689L43.9299 10.578H49.5942L50.2551 12.1533H53.8705ZM48.4904 7.97912H45.0204L46.6464 3.45933H46.8645L48.4904 7.97912ZM31.2793 0.189125H27.7895L27.7829 6.88241C27.8094 8.67703 28.424 10.0729 29.4353 10.9702C30.584 11.9225 32.0386 12.4211 33.5266 12.3726C35.2715 12.3726 36.7189 11.8342 37.7104 10.917C38.7018 9.99974 39.2933 8.58398 39.2933 6.88906V0.189125H35.8663V7.04858C35.9189 7.7581 35.7225 8.46371 35.3111 9.04261C34.974 9.48129 34.399 9.76046 33.5662 9.76046C33.253 9.77327 32.941 9.71339 32.6544 9.58544C32.3679 9.4575 32.1145 9.26493 31.9138 9.02266C31.4765 8.461 31.2516 7.76142 31.2793 7.04858V0.189125ZM67.2613 12.1533V0.189125H63.9566V7.06852L58.5633 0.189125H55.4733V12.1533H58.7781V5.15425L64.1483 12.1533H67.2613ZM78.9601 0.189125H69.1847V2.76142H72.3176V12.1533H75.8074V2.76142H78.9601V0.189125ZM84.3733 0.189125H80.8835L80.8769 6.88241C80.9033 8.67703 81.518 10.0729 82.5292 10.9702C83.6814 11.9256 85.1412 12.4244 86.6337 12.3726C88.3786 12.3726 89.8261 11.8342 90.8175 10.917C91.8089 9.99974 92.4038 8.58398 92.4038 6.88906V0.189125H88.9603V7.04858C89.0129 7.7581 88.8164 8.46371 88.4051 9.04261C88.068 9.48129 87.493 9.76046 86.6602 9.76046C86.3469 9.77327 86.0349 9.71339 85.7484 9.58544C85.4618 9.4575 85.2084 9.26493 85.0078 9.02266C84.5704 8.461 84.3456 7.76142 84.3733 7.04858V0.189125ZM102.159 8.7435L99.2644 0.189125H94.3139V12.1533H97.4468V4.237H97.5856L100.302 12.1533H103.772L106.502 4.237H106.641V12.1533H109.992V0.189125H105.094L102.159 8.7435ZM55.004 18.0359H43.0904V30.0001H55.2419V27.3679H46.5372V25.1346H53.9002V22.5623H46.5372V20.668H55.004V18.0359ZM56.5605 30.0001L61.8481 18.0359H65.404L70.6916 30.0001H67.0894L66.4285 28.4248H60.7443L60.0834 30.0001H56.5605ZM63.6921 21.3061H63.474L61.8481 25.8126H65.3181L63.6921 21.3061ZM72.3142 30.0001V18.0359H77.5819L80.4769 26.5903L83.4115 18.0359H88.3091V30.0001H84.9581V22.0838H84.8193L82.1028 30.0001H78.6329L75.9164 22.0838H75.4471V30.0001H72.3142ZM27.7894 18.0359H41.5272V20.6082H36.4049V30.0001H32.9151V20.6082H27.7894V18.0359Z" fill="white"/>
</svg>
