<svg width="119" height="33" viewBox="0 0 119 33" fill="none" xmlns="http://www.w3.org/2000/svg">
<path d="M53.1182 1.19855L58.791 13.9617H54.9122L54.2031 12.2812H48.1262L47.4171 13.9617H43.6164L49.2891 1.19855L53.1182 1.19855ZM49.2962 9.50876H53.019L51.2746 4.68714H51.0406L49.2962 9.50876ZM30.8102 1.19855H34.5542V8.51607C34.5245 9.27652 34.7657 10.0228 35.2349 10.622C35.4502 10.8804 35.722 11.0859 36.0295 11.2224C36.3369 11.3588 36.6716 11.4227 37.0077 11.409C37.9011 11.409 38.518 11.1112 38.8797 10.6433C39.321 10.0257 39.5317 9.27298 39.4753 8.51607V1.19855L43.1519 1.19855V8.3459C43.1519 10.154 42.5173 11.6643 41.4537 12.6428C40.39 13.6213 38.8371 14.1957 36.9651 14.1957C35.3687 14.2474 33.8083 13.7155 32.5758 12.6995C31.4909 11.7423 30.8315 10.2533 30.8031 8.33881L30.8102 1.19855ZM73.1572 1.19855V13.9617H69.8173L64.056 6.49524V13.9617L60.5105 13.9617V1.19855H63.8255L69.6117 8.53735V1.19855H73.1572ZM75.2206 1.19855L85.7081 1.19855V3.94262H82.3257V13.9617H78.5817V3.94262H75.2206V1.19855ZM87.7716 1.19855L91.5156 1.19855V8.51607C91.4858 9.27652 91.7271 10.0228 92.1963 10.622C92.4115 10.8804 92.6834 11.0859 92.9908 11.2224C93.2982 11.3588 93.6329 11.4227 93.969 11.409C94.8625 11.409 95.4794 11.1112 95.841 10.6433C96.2823 10.0257 96.4931 9.27298 96.4367 8.51607V1.19855L100.131 1.19855V8.3459C100.131 10.154 99.4928 11.6643 98.4292 12.6428C97.3656 13.6213 95.8127 14.1957 93.9407 14.1957C92.3395 14.2509 90.7733 13.7187 89.5372 12.6995C88.4523 11.7423 87.7928 10.2533 87.7645 8.33881L87.7716 1.19855ZM107.491 1.19855L110.597 10.3242L113.746 1.19855L119 1.19855V13.9617H115.405V5.51674H115.256L112.327 13.9617H108.605L105.69 5.51674H105.541V13.9617H102.18V1.19855L107.491 1.19855Z" fill="#0A051E"/>
<path d="M51.4449 14.6353C49.7389 15.074 48.0045 15.3938 46.2543 15.5925C44.4246 15.7905 42.585 15.8829 40.7447 15.8691C36.6603 15.8691 33.5332 15.6351 30.2572 14.6991C28.8077 14.3107 27.4189 13.7237 26.1303 12.9548L23.2372 14.0822C25.2143 15.4919 27.4016 16.5807 29.7183 17.3084C32.7555 18.2061 35.9116 18.6365 39.0783 18.5848C41.621 18.5953 44.1605 18.4033 46.6727 18.0104C48.4983 17.7148 50.2978 17.2762 52.0547 16.6987L51.4449 14.6353Z" fill="url(#paint0_linear_237_133)"/>
<path d="M27.1654 2.85058C25.7756 1.68062 23.7724 0.999923 21.3331 0.999923C19.7042 0.957515 18.0905 1.32314 16.6389 2.06352C17.3648 2.80717 17.9307 3.69158 18.3018 4.66223C18.3018 4.66223 18.3018 4.66223 18.3195 4.66223C18.9045 4.10916 20.1135 3.72627 21.3331 3.72627C22.5528 3.72627 23.7618 4.10916 24.3468 4.66223C24.7494 5.04106 25.0686 5.49965 25.2841 6.00875C25.4996 6.51785 25.6066 7.06627 25.5983 7.61902C25.6129 8.66453 25.2332 9.67719 24.5347 10.4553C24.3285 10.6611 24.0887 10.8302 23.8256 10.9552C23.2299 10.3418 22.6662 9.72139 22.1238 9.08324L20.4219 10.4234C20.6914 10.7779 20.975 11.1537 21.2693 11.5153C19.9504 11.5153 18.6988 11.0615 18.1493 10.4517C17.4458 9.67519 17.0587 8.66328 17.0644 7.61548C17.0793 6.7087 16.8894 5.81026 16.5088 4.98708C16.1282 4.16391 15.5667 3.43724 14.8662 2.86121C13.4764 1.68062 11.4732 0.999923 9.03392 0.999923C6.59464 0.999923 4.59146 1.68062 3.19809 2.85058C2.49418 3.42599 1.93044 4.15405 1.5496 4.97959C1.16875 5.80514 0.980773 6.70653 0.999906 7.61548C0.968836 8.54646 1.15592 9.47182 1.54621 10.3176C1.9365 11.1634 2.51919 11.9062 3.24773 12.4867C4.66591 13.6354 6.71519 14.231 9.03392 14.231C10.6509 14.2664 12.253 13.9151 13.7068 13.2064C12.9761 12.4646 12.4107 11.5765 12.0476 10.6006C11.4236 11.1324 10.2571 11.5082 9.03392 11.5082C7.69019 11.5082 6.41028 11.0615 5.843 10.4446C5.13806 9.66923 4.75185 8.65628 4.76164 7.60839C4.75379 7.05537 4.86135 6.50679 5.07745 5.99768C5.29356 5.48857 5.61346 5.03012 6.01673 4.6516C6.60173 4.09853 7.80719 3.71563 9.03037 3.71563C10.2536 3.71563 11.4555 4.09853 12.044 4.6516C12.4421 5.0317 12.7584 5.48904 12.9736 5.99562C13.1888 6.5022 13.2984 7.04737 13.2956 7.59775C13.2625 8.53086 13.4479 9.45879 13.8369 10.3076C14.226 11.1564 14.8079 11.9026 15.5363 12.4867C16.9545 13.6354 19.0038 14.231 21.3225 14.231C23.6412 14.231 25.6905 13.6354 27.1087 12.4867C27.8381 11.9066 28.4218 11.164 28.8133 10.3183C29.2048 9.47251 29.3933 8.54697 29.3636 7.61548C29.3827 6.70653 29.1947 5.80514 28.8139 4.97959C28.433 4.15405 27.8693 3.42599 27.1654 2.85058Z" fill="url(#paint1_linear_237_133)"/>
<path d="M47.2257 20.2369H60.007V23.0448H50.9236V25.0656H58.8229V27.8097H50.9236V30.1921H60.2623V33H47.2257V20.2369ZM67.3497 20.2369L61.677 33H65.4564L66.1655 31.3195H72.2637L72.9728 33H76.8373L71.1646 20.2369H67.3497ZM69.0941 23.7255H69.3281L71.0724 28.5329H67.3497L69.0941 23.7255ZM78.5782 20.2369V33H81.9393V24.5551H82.4427L85.3571 33H89.0798L91.9942 24.5551H92.1431V33H95.7382V20.2369L90.4838 20.2369L87.3354 29.3625L84.2296 20.2369H78.5782ZM45.5487 20.2369H30.8102V22.981H36.3092V33H40.0532V22.981H45.5487V20.2369Z" fill="#0A051E"/>
<defs>
<linearGradient id="paint0_linear_237_133" x1="23.2372" y1="15.7627" x2="52.0405" y2="15.7627" gradientUnits="userSpaceOnUse">
<stop offset="0.4" stop-color="#0A051E"/>
<stop offset="1" stop-color="#09A5F0"/>
</linearGradient>
<linearGradient id="paint1_linear_237_133" x1="1.31545" y1="10.0653" x2="29.0409" y2="5.17591" gradientUnits="userSpaceOnUse">
<stop stop-color="#09A5F0"/>
<stop offset="0.4" stop-color="#0A051E"/>
</linearGradient>
</defs>
</svg>
